<svg width="75" height="75" viewBox="0 0 75 75" fill="none" xmlns="http://www.w3.org/2000/svg">
<circle cx="37.5" cy="37.5" r="36.5" fill="#4B626C" stroke="white" stroke-width="2"/>
<g clip-path="url(#clip0_28_274)">
<path d="M47.4938 43.2399L52.5111 23.5946H58V20.5067H50.1127L48.9299 25.1377L17 25.1149L20.3946 43.2398H47.4938V43.2399ZM48.1415 28.2251L45.0954 40.1519H22.9579L20.7205 28.2055L48.1415 28.2251Z" fill="white"/>
<path d="M43.2666 54.4934C45.9895 54.4934 48.2048 52.2781 48.2048 49.5552C48.2048 46.8323 45.9895 44.6171 43.2666 44.6171H24.6616C21.9387 44.6171 19.7234 46.8323 19.7234 49.5552C19.7234 52.2781 21.9386 54.4934 24.6616 54.4934C27.3845 54.4934 29.5997 52.2781 29.5997 49.5552C29.5997 48.9013 29.4716 48.2768 29.2398 47.705H38.6884C38.4565 48.2768 38.3284 48.9013 38.3284 49.5552C38.3285 52.2781 40.5437 54.4934 43.2666 54.4934ZM26.5118 49.5552C26.5118 50.5754 25.6818 51.4054 24.6616 51.4054C23.6414 51.4054 22.8114 50.5754 22.8114 49.5552C22.8114 48.535 23.6413 47.705 24.6616 47.705C25.6818 47.705 26.5118 48.535 26.5118 49.5552ZM45.1169 49.5552C45.1169 50.5754 44.2869 51.4054 43.2667 51.4054C42.2465 51.4054 41.4165 50.5754 41.4165 49.5552C41.4165 48.535 42.2465 47.705 43.2667 47.705C44.2869 47.705 45.1169 48.535 45.1169 49.5552Z" fill="white"/>
</g>
<defs>
<clipPath id="clip0_28_274">
<rect width="41" height="41" fill="white" transform="translate(17 17)"/>
</clipPath>
</defs>
</svg>
