<svg width="22" height="16" viewBox="0 0 22 16" fill="none" xmlns="http://www.w3.org/2000/svg">
<path d="M1.75281 0.00508181C1.4056 0.0582194 1.09469 0.241111 0.888457 0.513522C0.682228 0.785933 0.597578 1.12555 0.653131 1.45766C0.708684 1.78977 0.899889 2.08717 1.18468 2.28443C1.46948 2.48169 1.82453 2.56266 2.17173 2.50952H6.09916L6.3348 3.13564L7.4083 6.26619L8.48179 9.39674C8.58652 9.72232 9.03163 10.0229 9.37201 10.0229H18.536C18.9026 10.0229 19.3215 9.72232 19.4262 9.39674L21.547 3.13564C21.6517 2.81006 21.4947 2.50952 21.1281 2.50952H9.50292L8.50798 0.706326C8.402 0.499357 8.23838 0.324375 8.03511 0.200648C7.83184 0.0769205 7.59683 0.00924798 7.35593 0.00508181L2.11937 0.00508181C2.04098 -0.00169394 1.96211 -0.00169394 1.88372 0.00508181C1.83141 0.00207377 1.77895 0.00207377 1.72663 0.00508181L1.75281 0.00508181ZM10.0266 12.5273C9.29346 12.5273 8.71744 13.0783 8.71744 13.7795C8.71744 14.4808 9.29346 15.0317 10.0266 15.0317C10.7597 15.0317 11.3357 14.4808 11.3357 13.7795C11.3357 13.0783 10.7597 12.5273 10.0266 12.5273ZM17.8814 12.5273C17.1483 12.5273 16.5723 13.0783 16.5723 13.7795C16.5723 14.4808 17.1483 15.0317 17.8814 15.0317C18.6145 15.0317 19.1906 14.4808 19.1906 13.7795C19.1906 13.0783 18.6145 12.5273 17.8814 12.5273Z" fill="#4B626C"/>
</svg>
