<svg width="21" height="16" viewBox="0 0 21 16" fill="none" xmlns="http://www.w3.org/2000/svg">
<path d="M1.0678 0.00508181C0.735689 0.0582194 0.43829 0.241111 0.241027 0.513522C0.0437638 0.785933 -0.0372051 1.12555 0.0159325 1.45766C0.0690701 1.78977 0.251961 2.08717 0.524372 2.28443C0.796783 2.48169 1.1364 2.56266 1.46851 2.50952H5.22517L5.45057 3.13564L6.4774 6.26619L7.50422 9.39674C7.60439 9.72232 8.03015 10.0229 8.35573 10.0229H17.1213C17.4719 10.0229 17.8726 9.72232 17.9728 9.39674L20.0014 3.13564C20.1016 2.81006 19.9513 2.50952 19.6007 2.50952H8.48095L7.52926 0.706326C7.4279 0.499357 7.27138 0.324375 7.07696 0.200648C6.88253 0.0769205 6.65773 0.00924798 6.42731 0.00508181L1.41842 0.00508181C1.34344 -0.00169394 1.268 -0.00169394 1.19302 0.00508181C1.14298 0.00207377 1.0928 0.00207377 1.04275 0.00508181L1.0678 0.00508181ZM8.98184 12.5273C8.28059 12.5273 7.72962 13.0783 7.72962 13.7795C7.72962 14.4808 8.28059 15.0317 8.98184 15.0317C9.68308 15.0317 10.2341 14.4808 10.2341 13.7795C10.2341 13.0783 9.68308 12.5273 8.98184 12.5273ZM16.4952 12.5273C15.7939 12.5273 15.2429 13.0783 15.2429 13.7795C15.2429 14.4808 15.7939 15.0317 16.4952 15.0317C17.1964 15.0317 17.7474 14.4808 17.7474 13.7795C17.7474 13.0783 17.1964 12.5273 16.4952 12.5273Z" fill="#FBF6F0"/>
</svg>
